<svg xmlns="http://www.w3.org/2000/svg" version="1.0" width="1414.000000pt" height="2000.000000pt" viewBox="0 0 1414.000000 2000.000000" preserveAspectRatio="xMidYMid meet">

<g transform="translate(0.000000,2000.000000) scale(0.100000,-0.100000)" fill="#000000" stroke="none">
<path d="M7300 17005 c-34 -37 -33 -90 4 -121 58 -51 150 -14 150 59 0 53 -35 87 -89 87 -31 0 -47 -6 -65 -25z"/>
<path d="M5454 16796 c-17 -8 -36 -27 -43 -44 -41 -97 76 -177 150 -103 76 76 -8 191 -107 147z"/>
<path d="M9182 16774 c-33 -23 -45 -60 -32 -100 15 -43 45 -64 93 -64 53 0 87 35 87 90 0 55 -34 90 -87 90 -21 0 -49 -7 -61 -16z"/>
<path d="M7049 16651 c-36 -37 -38 -79 -5 -118 19 -22 32 -28 66 -28 82 0 119 88 61 146 -20 20 -39 29 -61 29 -22 0 -41 -9 -61 -29z"/>
<path d="M7495 16655 c-54 -53 -11 -155 65 -155 45 0 90 47 90 95 0 51 -36 85 -90 85 -30 0 -47 -6 -65 -25z"/>
<path d="M8854 16506 c-59 -26 -68 -106 -17 -146 60 -47 143 -8 143 68 0 66 -64 106 -126 78z"/>
<path d="M5733 16500 c-12 -5 -29 -23 -38 -40 -13 -26 -14 -37 -5 -66 12 -34 51 -64 85 -64 31 0 73 30 83 60 27 76 -48 141 -125 110z"/>
<path d="M9283 16381 c-76 -47 -38 -161 55 -161 72 0 109 89 60 144 -31 35 -75 42 -115 17z"/>
<path d="M5275 16365 c-44 -43 -26 -124 32 -146 37 -14 90 6 108 41 22 43 18 68 -14 101 -38 38 -91 40 -126 4z"/>
<path d="M7114 16161 c-77 -19 -129 -93 -122 -175 13 -159 206 -212 302 -83 31 42 34 126 5 177 -37 65 -111 98 -185 81z m115 -67 c17 -14 36 -42 42 -63 24 -81 -54 -173 -132 -156 -41 9 -86 49 -99 90 -36 110 101 203 189 129z"/>
<path d="M7805 16136 c-45 -20 -82 -66 -96 -117 -25 -95 41 -187 140 -197 92 -8 157 33 182 117 38 128 -103 252 -226 197z m151 -70 c28 -28 34 -41 34 -77 0 -59 -29 -104 -75 -119 -108 -36 -202 70 -150 170 22 43 53 60 108 60 42 0 54 -5 83 -34z"/>
<path d="M6385 16095 c-115 -41 -147 -185 -61 -271 86 -86 228 -54 272 62 49 128 -80 255 -211 209z m115 -50 c16 -9 36 -29 45 -45 31 -60 10 -137 -45 -165 -108 -56 -221 57 -165 165 29 55 105 76 165 45z"/>
<path d="M3691 16064 c-53 -44 -40 -123 25 -150 29 -12 39 -12 67 -1 45 19 62 43 62 89 0 80 -90 116 -154 62z"/>
<path d="M10942 16055 c-36 -16 -62 -62 -54 -101 2 -13 16 -35 29 -49 56 -55 153 -16 153 60 0 49 -15 74 -55 91 -40 16 -32 17 -73 -1z"/>
<path d="M8515 16031 c-50 -23 -79 -55 -95 -104 -42 -132 113 -258 238 -193 68 35 106 127 83 198 -21 64 -98 119 -166 118 -11 0 -38 -9 -60 -19z m151 -65 c28 -28 34 -42 34 -75 0 -85 -56 -138 -134 -128 -55 8 -106 61 -106 112 0 78 47 125 123 125 42 0 54 -5 83 -34z"/>
<path d="M5691 15960 c-42 -10 -79 -37 -109 -81 -20 -28 -23 -44 -20 -91 5 -71 39 -119 103 -143 117 -45 233 43 223 170 -9 104 -95 168 -197 145z m117 -74 c34 -31 37 -39 37 -86 0 -47 -3 -55 -37 -86 -31 -28 -45 -34 -82 -34 -119 0 -165 151 -67 217 52 35 103 31 149 -11z"/>
<path d="M4073 15872 c-12 -2 -34 -17 -49 -34 -20 -25 -24 -38 -20 -62 9 -45 43 -76 83 -76 47 0 72 16 89 55 27 67 -27 129 -103 117z"/>
<path d="M10515 15855 c-54 -53 -15 -149 60 -149 30 0 44 7 67 33 24 27 29 39 24 65 -14 71 -102 101 -151 51z"/>
<path d="M9204 15851 c-54 -25 -86 -71 -92 -132 -6 -60 10 -100 54 -139 69 -61 163 -60 224 2 38 38 50 66 50 120 0 119 -127 200 -236 149z m144 -56 c43 -36 58 -77 44 -124 -34 -112 -184 -121 -228 -14 -22 51 -11 95 32 132 46 41 108 43 152 6z"/>
<path d="M4985 15724 c-71 -37 -101 -92 -92 -171 5 -49 27 -85 71 -117 21 -16 42 -21 91 -21 49 0 70 5 91 21 49 36 67 70 72 131 3 49 0 64 -20 93 -51 75 -141 102 -213 64z m143 -50 c32 -21 55 -79 47 -120 -8 -43 -57 -92 -100 -100 -78 -14 -155 64 -140 143 7 40 52 89 88 96 32 7 78 -1 105 -19z"/>
<path d="M10934 15650 c-56 -22 -69 -90 -28 -139 35 -42 84 -43 125 -2 16 16 29 39 29 51 0 37 -28 77 -61 89 -37 13 -37 13 -65 1z"/>
<path d="M3659 15635 c-58 -32 -58 -120 1 -150 41 -21 64 -19 99 11 23 19 31 34 31 59 0 47 -8 64 -41 80 -34 18 -56 18 -90 0z"/>
<path d="M9870 15588 c-61 -31 -90 -77 -90 -143 0 -143 171 -222 274 -127 86 80 69 215 -33 269 -55 29 -95 29 -151 1z m149 -53 c41 -35 55 -81 39 -131 -15 -45 -66 -84 -112 -84 -61 0 -126 63 -126 120 0 35 31 90 59 105 43 23 105 19 140 -10z"/>
<path d="M6965 15454 c-1248 -78 -2385 -531 -3360 -1340 -167 -138 -560 -531 -699 -699 -794 -956 -1240 -2054 -1336 -3289 -13 -167 -13 -632 0 -811 139 -1911 1220 -3626 2885 -4580 1202 -688 2632 -917 3985 -640 412 85 834 221 1208 389 1372 617 2469 1776 3006 3175 199 518 311 1008 367 1601 17 177 17 733 1 920 -89 993 -398 1888 -937 2705 -836 1268 -2176 2172 -3655 2464 -398 79 -630 102 -1065 106 -187 1 -367 1 -400 -1z m895 -109 c80 -8 192 -23 250 -31 1060 -155 2044 -603 2865 -1304 163 -139 506 -486 639 -645 572 -686 960 -1444 1166 -2280 118 -476 164 -859 163 -1365 0 -415 -32 -754 -108 -1126 -351 -1722 -1495 -3192 -3080 -3960 -607 -294 -1212 -464 -1925 -541 -202 -21 -824 -25 -1015 -5 -204 21 -364 43 -505 68 -995 182 -1871 593 -2655 1247 -170 142 -549 525 -696 702 -736 890 -1159 1896 -1285 3055 -22 201 -30 704 -15 926 44 658 193 1279 449 1869 774 1792 2423 3065 4342 3354 118 17 354 43 505 55 129 10 767 -3 905 -19z"/>
<path d="M7322 14843 c-31 -28 -35 -56 -11 -86 25 -33 70 -36 99 -7 27 27 25 56 -5 85 -28 29 -55 32 -83 8z"/>
<path d="M7641 14824 c-12 -15 -21 -32 -21 -39 0 -27 41 -65 71 -65 33 0 69 31 69 59 0 32 -39 71 -70 71 -19 0 -36 -9 -49 -26z"/>
<path d="M6321 14744 c-12 -15 -21 -32 -21 -39 0 -27 41 -65 70 -65 29 0 70 38 70 65 0 27 -41 65 -70 65 -19 0 -36 -9 -49 -26z"/>
<path d="M6015 14688 c-27 -15 -35 -28 -35 -60 0 -27 39 -68 65 -68 26 0 65 41 65 69 0 46 -56 81 -95 59z"/>
<path d="M8642 14680 c-12 -5 -27 -22 -33 -37 -8 -22 -6 -32 9 -52 27 -36 84 -41 106 -9 22 32 20 55 -9 83 -26 27 -37 29 -73 15z"/>
<path d="M7320 14570 c-11 -11 -20 -31 -20 -45 0 -30 32 -65 60 -65 53 0 81 84 38 114 -30 21 -54 20 -78 -4z"/>
<path d="M8950 14572 c-45 -36 -17 -112 42 -112 33 0 68 31 68 60 0 26 -43 70 -68 70 -11 0 -30 -8 -42 -18z"/>
<path d="M7630 14560 c-11 -11 -20 -29 -20 -40 0 -25 42 -70 65 -70 20 0 65 44 65 63 0 8 -9 26 -21 41 -25 31 -61 34 -89 6z"/>
<path d="M6377 14482 c-36 -40 -9 -102 44 -102 30 0 43 9 58 37 31 59 -57 115 -102 65z"/>
<path d="M6070 14410 c-11 -11 -20 -29 -20 -40 0 -28 35 -60 65 -60 30 0 65 32 65 60 0 28 -35 60 -65 60 -14 0 -34 -9 -45 -20z"/>
<path d="M8557 14402 c-21 -23 -22 -51 -1 -80 32 -46 107 -15 107 44 0 50 -72 74 -106 36z"/>
<path d="M5070 14330 c-25 -25 -26 -72 -2 -93 41 -37 112 -6 112 48 0 14 -9 34 -20 45 -11 11 -31 20 -45 20 -14 0 -34 -9 -45 -20z"/>
<path d="M8861 14304 c-12 -15 -21 -33 -21 -41 0 -19 45 -63 65 -63 22 0 65 45 65 68 0 26 -37 62 -65 62 -14 0 -32 -11 -44 -26z"/>
<path d="M4784 14182 c-13 -9 -34 -46 -34 -62 0 -19 48 -60 70 -60 12 0 32 11 46 26 42 41 15 104 -45 104 -14 0 -31 -4 -37 -8z"/>
<path d="M9865 14155 c-29 -28 -31 -51 -9 -83 15 -22 66 -30 90 -14 39 25 36 90 -5 111 -30 17 -50 13 -76 -14z"/>
<path d="M5187 14082 c-37 -40 -9 -102 46 -102 33 0 70 45 61 74 -13 46 -76 62 -107 28z"/>
<path d="M6960 14018 c0 -32 33 -423 36 -427 15 -16 16 36 3 221 -10 150 -18 213 -26 216 -7 2 -13 -2 -13 -10z"/>
<path d="M7670 14016 c0 -9 -7 -91 -15 -183 -21 -237 -21 -246 -9 -250 8 -3 29 177 48 421 0 10 -5 21 -11 23 -7 3 -13 -2 -13 -11z"/>
<path d="M10130 13980 c-41 -41 -10 -110 48 -110 37 0 62 28 62 68 0 56 -70 82 -110 42z"/>
<path d="M4940 13952 c-52 -17 -64 -65 -26 -101 31 -29 68 -22 93 15 15 23 15 29 2 52 -15 27 -45 42 -69 34z"/>
<path d="M9722 13924 c-46 -32 -20 -107 38 -107 38 0 60 23 60 64 0 29 -31 59 -60 59 -9 0 -26 -7 -38 -16z"/>
<path d="M6260 13903 c1 -24 96 -403 104 -410 18 -19 12 23 -29 193 -24 104 -47 199 -50 212 -6 26 -25 30 -25 5z"/>
<path d="M8377 13903 c-7 -12 -107 -403 -107 -419 0 -25 17 -15 23 14 4 15 29 111 56 214 27 104 45 190 41 193 -5 3 -11 2 -13 -2z"/>
<path d="M9980 13750 c-24 -24 -25 -48 -4 -78 32 -46 114 -17 114 40 0 26 -36 58 -65 58 -14 0 -34 -9 -45 -20z"/>
<path d="M5586 13692 c-6 -11 165 -412 177 -412 14 0 6 24 -75 213 -85 201 -92 215 -102 199z"/>
<path d="M9047 13663 c-3 -5 -44 -95 -91 -202 -77 -174 -94 -224 -67 -195 10 9 181 387 181 398 0 9 -18 8 -23 -1z"/>
<path d="M3965 13595 c-30 -29 -32 -55 -7 -86 23 -27 75 -30 99 -6 24 24 21 76 -6 99 -31 25 -57 23 -86 -7z"/>
<path d="M4141 13383 c-34 -42 -10 -93 44 -93 60 0 89 72 43 104 -33 23 -64 19 -87 -11z"/>
<path d="M3720 13370 c-41 -41 -13 -110 44 -110 41 0 66 26 66 68 0 56 -70 82 -110 42z"/>
<path d="M4957 13353 c-6 -11 226 -366 242 -371 8 -3 12 0 10 5 -9 23 -235 373 -241 373 -4 0 -9 -3 -11 -7z"/>
<path d="M10896 13344 c-19 -19 -21 -64 -3 -87 6 -9 24 -19 39 -22 21 -5 33 -1 52 19 30 29 33 52 10 84 -18 26 -74 30 -98 6z"/>
<path d="M9558 13152 c-109 -163 -141 -224 -104 -193 30 25 239 352 230 361 -5 5 -56 -62 -126 -168z"/>
<path d="M7207 13220 c-50 -39 -42 -117 15 -146 60 -31 128 13 128 83 0 71 -85 109 -143 63z"/>
<path d="M7648 13190 c-26 -27 -30 -36 -25 -67 9 -52 38 -78 88 -78 81 0 117 88 60 146 -40 40 -82 39 -123 -1z"/>
<path d="M6767 13199 c-26 -15 -48 -65 -41 -93 22 -87 143 -93 175 -8 11 29 -11 86 -39 101 -26 14 -71 14 -95 0z"/>
<path d="M3932 13189 c-12 -5 -27 -20 -34 -34 -10 -22 -8 -30 9 -53 25 -34 65 -40 92 -13 48 48 -3 124 -67 100z"/>
<path d="M10707 13152 c-37 -40 -9 -102 46 -102 33 0 57 24 57 59 0 54 -68 82 -103 43z"/>
<path d="M8109 13125 c-80 -43 -45 -165 47 -165 79 0 115 102 53 154 -34 29 -61 32 -100 11z"/>
<path d="M6335 13108 c-32 -17 -45 -39 -45 -79 0 -29 7 -43 31 -63 17 -14 39 -26 50 -26 37 0 77 29 89 64 25 77 -54 143 -125 104z"/>
<path d="M11121 13094 c-12 -15 -21 -32 -21 -39 0 -27 41 -65 70 -65 29 0 70 38 70 65 0 27 -41 65 -70 65 -19 0 -36 -9 -49 -26z"/>
<path d="M8544 12990 c-30 -12 -54 -49 -54 -83 0 -40 49 -87 90 -87 22 0 41 9 61 29 46 46 37 106 -21 136 -32 17 -45 18 -76 5z"/>
<path d="M5889 12941 c-32 -33 -36 -58 -14 -100 29 -56 106 -63 145 -14 70 89 -51 194 -131 114z"/>
<path d="M10934 12932 c-57 -38 -18 -132 48 -114 23 6 48 40 48 64 0 40 -63 73 -96 50z"/>
<path d="M4396 12922 c-7 -12 278 -332 296 -332 17 0 4 17 -118 152 -66 73 -132 146 -146 162 -17 20 -27 25 -32 18z"/>
<path d="M10105 12748 c-143 -154 -170 -186 -162 -195 3 -3 46 37 94 88 48 52 117 124 152 162 38 40 61 71 55 76 -5 5 -63 -50 -139 -131z"/>
<path d="M8925 12777 c-59 -51 -20 -151 59 -151 50 0 86 36 86 86 0 78 -86 117 -145 65z"/>
<path d="M5510 12757 c-28 -14 -50 -51 -50 -85 0 -35 52 -82 90 -82 43 0 90 47 90 90 0 22 -9 41 -29 61 -32 31 -61 36 -101 16z"/>
<path d="M3087 12602 c-34 -38 -15 -95 35 -107 21 -5 33 -1 52 19 30 29 33 52 10 84 -19 28 -74 30 -97 4z"/>
<path d="M9322 12545 c-57 -25 -68 -90 -23 -136 41 -41 90 -40 125 2 42 49 32 105 -24 134 -35 18 -36 18 -78 0z"/>
<path d="M5137 12504 c-53 -29 -61 -91 -18 -135 41 -41 90 -40 125 2 32 38 33 80 4 113 -29 33 -74 41 -111 20z"/>
<path d="M3317 12452 c-37 -40 -14 -102 37 -102 59 0 87 59 46 100 -25 25 -62 26 -83 2z"/>
<path d="M3906 12401 c-5 -8 318 -271 344 -279 35 -12 -9 30 -147 139 -195 154 -190 151 -197 140z"/>
<path d="M10543 12227 c-95 -73 -172 -135 -173 -139 0 -19 28 0 189 122 151 116 190 151 164 150 -5 0 -85 -60 -180 -133z"/>
<path d="M2906 12318 c-33 -46 -4 -108 49 -108 55 0 87 77 47 113 -27 25 -78 22 -96 -5z"/>
<path d="M11700 12290 c-26 -26 -25 -60 0 -88 41 -43 110 -17 110 42 0 60 -68 88 -110 46z"/>
<path d="M9636 12229 c-41 -49 -29 -106 30 -134 87 -41 168 72 99 140 -37 38 -95 35 -129 -6z"/>
<path d="M4785 12185 c-56 -55 -16 -145 63 -145 50 0 86 36 86 85 0 77 -95 115 -149 60z"/>
<path d="M3146 12184 c-35 -34 -8 -104 40 -104 33 0 64 29 64 59 0 52 -68 82 -104 45z"/>
<path d="M11487 12168 c-51 -18 -46 -100 8 -114 33 -8 50 -1 70 30 14 21 15 29 3 52 -16 33 -44 44 -81 32z"/>
<path d="M11860 12000 c-42 -42 -13 -112 47 -112 30 0 63 33 63 64 0 25 -44 68 -70 68 -11 0 -29 -9 -40 -20z"/>
<path d="M9939 11901 c-20 -20 -29 -39 -29 -61 0 -43 47 -90 90 -90 43 0 90 47 90 90 0 43 -47 90 -90 90 -22 0 -41 -9 -61 -29z"/>
<path d="M11622 11884 c-34 -23 -28 -82 11 -104 24 -13 30 -13 55 0 31 18 41 64 20 92 -20 25 -59 31 -86 12z"/>
<path d="M4533 11872 c-12 -2 -34 -17 -49 -34 -31 -38 -27 -81 12 -115 56 -50 144 -13 144 60 0 60 -46 98 -107 89z"/>
<path d="M3510 11802 c0 -4 55 -38 123 -75 67 -37 155 -85 195 -107 45 -26 72 -36 72 -28 0 13 -359 218 -380 218 -6 0 -10 -4 -10 -8z"/>
<path d="M10908 11657 c-104 -56 -188 -105 -188 -110 0 -14 17 -6 212 97 103 54 185 102 182 107 -3 5 -8 9 -12 8 -4 0 -91 -46 -194 -102z"/>
<path d="M10215 11548 c-53 -29 -63 -102 -19 -143 31 -28 62 -31 103 -10 32 16 41 33 41 78 -1 65 -69 106 -125 75z"/>
<path d="M4251 11474 c-24 -20 -31 -34 -31 -63 0 -96 126 -122 168 -34 14 30 14 36 -1 68 -28 58 -87 71 -136 29z"/>
<path d="M2500 11422 c-44 -36 -17 -112 40 -112 58 0 86 57 50 103 -25 31 -58 35 -90 9z"/>
<path d="M2755 11325 c-14 -13 -25 -31 -25 -40 0 -21 44 -65 65 -65 21 0 65 44 65 65 0 21 -44 65 -65 65 -9 0 -27 -11 -40 -25z"/>
<path d="M3220 11151 c0 -10 411 -154 418 -146 10 10 -9 18 -200 86 -196 70 -218 76 -218 60z"/>
<path d="M10399 11131 c-41 -41 -40 -90 2 -125 37 -31 77 -33 112 -6 49 39 42 116 -14 145 -42 22 -67 18 -100 -14z"/>
<path d="M2397 11102 c-37 -41 -6 -112 48 -112 32 0 65 33 65 65 0 55 -77 87 -113 47z"/>
<path d="M11181 11039 c-112 -38 -206 -71 -209 -74 -3 -3 -3 -8 1 -11 6 -6 406 123 420 136 26 24 -29 10 -212 -51z"/>
<path d="M4059 11077 c-44 -34 -49 -83 -13 -126 19 -23 34 -31 59 -31 47 0 64 8 80 41 22 41 18 77 -10 104 -27 28 -88 34 -116 12z"/>
<path d="M12210 11072 c-28 -22 -32 -75 -7 -99 9 -9 30 -16 47 -16 17 0 38 7 47 16 20 20 21 73 2 92 -25 25 -63 28 -89 7z"/>
<path d="M2666 11029 c-15 -12 -26 -30 -26 -45 0 -29 33 -64 60 -64 25 0 70 42 70 65 0 20 -44 65 -63 65 -8 0 -26 -9 -41 -21z"/>
<path d="M11959 11006 c-50 -25 -29 -116 28 -116 51 0 83 70 46 102 -28 23 -48 27 -74 14z"/>
<path d="M12277 10742 c-23 -25 -21 -68 3 -92 58 -58 142 20 94 88 -19 28 -74 30 -97 4z"/>
<path d="M10545 10705 c-54 -53 -17 -146 58 -148 79 -2 121 91 67 148 -32 34 -91 35 -125 0z"/>
<path d="M12020 10690 c-30 -30 -24 -79 13 -100 24 -13 30 -13 55 0 50 29 38 101 -20 115 -19 5 -32 1 -48 -15z"/>
<path d="M3915 10648 c-15 -14 -28 -38 -32 -60 -5 -32 -1 -41 25 -68 41 -40 83 -41 123 -1 20 20 29 39 29 61 0 42 -47 90 -89 90 -17 0 -41 -10 -56 -22z"/>
<path d="M3040 10464 c0 -8 3 -14 7 -14 4 0 101 -16 216 -36 184 -31 232 -36 216 -20 -2 3 -94 21 -204 40 -110 20 -208 38 -217 40 -11 2 -18 -2 -18 -10z"/>
<path d="M11312 10377 c-117 -19 -191 -35 -188 -42 2 -5 7 -9 12 -9 149 20 434 70 434 76 0 13 -53 8 -258 -25z"/>
<path d="M10670 10283 c-37 -13 -60 -47 -60 -85 0 -99 128 -123 166 -32 13 31 13 39 -1 68 -21 44 -64 64 -105 49z"/>
<path d="M3854 10220 c-85 -34 -61 -170 29 -170 100 0 129 136 36 169 -37 13 -37 13 -65 1z"/>
<path d="M2237 10128 c-46 -36 -16 -118 43 -118 29 0 70 38 70 65 0 7 -9 24 -21 39 -22 28 -64 35 -92 14z"/>
<path d="M2505 10100 c-24 -27 -22 -70 5 -92 29 -23 41 -23 74 3 31 25 34 61 6 89 -25 25 -62 26 -85 0z"/>
<path d="M10679 9811 c-20 -20 -29 -39 -29 -61 0 -43 47 -90 90 -90 43 0 90 47 90 90 0 43 -47 90 -90 90 -22 0 -41 -9 -61 -29z"/>
<path d="M2222 9790 c-43 -41 -16 -112 43 -112 34 0 65 29 65 61 0 32 -8 44 -37 60 -31 16 -46 14 -71 -9z"/>
<path d="M2486 9778 c-9 -12 -16 -29 -16 -38 0 -29 30 -60 59 -60 41 0 64 22 64 60 0 58 -75 84 -107 38z"/>
<path d="M3825 9776 c-31 -13 -55 -51 -55 -86 0 -10 12 -32 26 -49 52 -63 154 -28 154 53 0 66 -64 108 -125 82z"/>
<path d="M2976 9762 c-3 -5 1 -13 10 -16 28 -11 434 -7 434 4 0 6 -73 10 -197 10 -109 0 -208 3 -219 6 -12 3 -24 1 -28 -4z"/>
<path d="M12112 9754 c-35 -24 -28 -84 12 -103 25 -12 31 -11 55 6 35 27 40 75 9 97 -28 20 -48 20 -76 0z"/>
<path d="M12384 9762 c-23 -15 -34 -50 -25 -75 24 -64 121 -41 121 29 0 40 -61 70 -96 46z"/>
<path d="M11172 9688 c4 -10 60 -14 226 -16 193 -2 222 0 222 13 0 13 -30 15 -226 15 -176 0 -225 -3 -222 -12z"/>
<path d="M12096 9427 c-12 -9 -19 -26 -19 -47 0 -63 82 -83 113 -27 13 24 13 30 0 55 -18 31 -64 41 -94 19z"/>
<path d="M12360 9410 c-41 -41 -13 -112 45 -112 58 0 86 71 45 112 -11 11 -31 20 -45 20 -14 0 -34 -9 -45 -20z"/>
<path d="M10645 9365 c-48 -47 -25 -135 40 -151 60 -15 109 27 109 94 0 73 -97 110 -149 57z"/>
<path d="M3855 9318 c-32 -18 -44 -40 -45 -80 0 -28 7 -42 31 -62 17 -14 39 -26 50 -26 34 0 76 28 88 58 32 77 -52 151 -124 110z"/>
<path d="M3228 9086 c-144 -22 -198 -34 -198 -44 0 -10 8 -12 28 -8 28 6 399 66 407 66 3 0 5 5 5 10 0 14 -16 12 -242 -24z"/>
<path d="M11110 9051 c0 -13 5 -14 243 -55 109 -18 200 -29 203 -25 8 13 -2 15 -206 49 -102 17 -197 33 -212 36 -17 3 -28 1 -28 -5z"/>
<path d="M10567 8930 c-68 -54 -25 -160 64 -160 34 0 79 53 79 92 -1 74 -84 114 -143 68z"/>
<path d="M3926 8865 c-37 -34 -36 -87 3 -126 16 -16 39 -29 51 -29 35 0 76 27 89 58 36 87 -73 162 -143 97z"/>
<path d="M2577 8852 c-18 -19 -22 -59 -9 -79 4 -6 19 -16 34 -22 59 -22 108 67 56 103 -30 21 -61 20 -81 -2z"/>
<path d="M2315 8795 c-28 -27 -29 -33 -15 -70 20 -52 95 -52 119 1 19 42 -16 94 -64 94 -9 0 -27 -11 -40 -25z"/>
<path d="M2650 8540 c-28 -28 -23 -67 12 -93 23 -17 31 -19 53 -9 38 18 51 60 27 91 -25 34 -65 38 -92 11z"/>
<path d="M10423 8496 c-22 -19 -28 -32 -28 -65 0 -50 26 -79 78 -88 31 -5 40 -1 67 25 84 85 -26 206 -117 128z"/>
<path d="M11950 8507 c-36 -18 -41 -78 -8 -101 12 -9 30 -16 40 -16 26 0 58 36 58 65 0 26 -31 65 -52 65 -7 0 -24 -6 -38 -13z"/>
<path d="M3406 8431 c-110 -37 -202 -73 -204 -80 -3 -9 2 -11 14 -7 199 63 399 135 402 144 5 17 8 18 -212 -57z"/>
<path d="M2385 8470 c-37 -41 -7 -110 49 -110 28 0 66 39 66 68 0 53 -79 82 -115 42z"/>
<path d="M4110 8463 c-37 -13 -60 -47 -60 -85 0 -98 128 -124 166 -33 29 71 -36 143 -106 118z"/>
<path d="M10950 8431 c0 -5 33 -21 73 -35 39 -15 133 -48 207 -75 122 -44 167 -54 143 -30 -7 7 -406 149 -419 149 -2 0 -4 -4 -4 -9z"/>
<path d="M12181 8414 c-12 -15 -21 -32 -21 -39 0 -27 41 -65 70 -65 38 0 74 44 65 80 -13 55 -79 68 -114 24z"/>
<path d="M11839 8189 c-36 -36 -6 -99 48 -99 27 0 63 33 63 58 0 56 -70 82 -111 41z"/>
<path d="M12100 8112 c-44 -36 -17 -112 41 -112 28 0 69 39 69 67 0 21 -46 63 -68 63 -11 0 -30 -8 -42 -18z"/>
<path d="M10245 8108 c-32 -19 -44 -40 -45 -81 0 -94 122 -121 166 -36 40 78 -46 160 -121 117z"/>
<path d="M4300 8052 c-84 -41 -53 -162 41 -162 29 0 43 7 63 31 30 35 32 58 11 98 -11 22 -57 51 -79 51 -1 0 -17 -8 -36 -18z"/>
<path d="M3670 7809 c-102 -54 -186 -103 -189 -110 -2 -6 3 -9 12 -7 31 7 385 202 381 210 -3 4 -8 8 -12 7 -4 0 -90 -45 -192 -100z"/>
<path d="M10690 7843 c0 -4 64 -44 143 -88 236 -132 247 -138 247 -123 0 7 -82 58 -182 113 -187 102 -208 113 -208 98z"/>
<path d="M9976 7709 c-31 -37 -33 -77 -6 -112 39 -49 116 -42 145 14 21 40 19 63 -11 98 -20 25 -34 31 -64 31 -30 0 -44 -6 -64 -31z"/>
<path d="M4554 7690 c-56 -22 -69 -90 -28 -139 21 -25 33 -31 65 -31 100 0 125 128 34 166 -39 16 -42 16 -71 4z"/>
<path d="M2993 7670 c-12 -5 -25 -21 -29 -35 -15 -60 41 -104 91 -71 33 22 35 78 3 100 -25 18 -33 19 -65 6z"/>
<path d="M2730 7540 c-27 -27 -25 -56 5 -85 28 -29 55 -32 83 -7 31 27 35 55 11 85 -25 33 -70 36 -99 7z"/>
<path d="M3132 7384 c-31 -22 -30 -78 2 -99 64 -42 130 41 76 95 -24 24 -48 25 -78 4z"/>
<path d="M9685 7375 c-35 -34 -34 -93 0 -125 57 -53 149 -12 149 66 0 74 -96 113 -149 59z"/>
<path d="M4035 7239 c-93 -72 -171 -134 -173 -140 -9 -25 33 2 188 122 152 118 187 150 163 148 -5 0 -84 -59 -178 -130z"/>
<path d="M4828 7330 c-26 -27 -30 -36 -25 -67 4 -20 15 -45 25 -55 10 -10 35 -21 55 -25 31 -5 40 -1 67 25 40 41 41 83 1 123 -40 40 -82 39 -123 -1z"/>
<path d="M11450 7340 c-27 -27 -23 -67 11 -92 54 -40 121 27 81 81 -25 34 -65 38 -92 11z"/>
<path d="M10331 7313 c3 -8 220 -186 336 -275 6 -5 14 -5 17 0 3 5 -69 69 -160 141 -160 128 -201 156 -193 134z"/>
<path d="M2890 7250 c-42 -42 -13 -112 47 -112 31 0 63 33 63 66 0 28 -39 66 -68 66 -12 0 -31 -9 -42 -20z"/>
<path d="M11710 7223 c-55 -20 -67 -78 -24 -112 15 -12 32 -21 39 -21 7 0 24 9 39 21 26 20 35 61 18 85 -7 10 -47 35 -54 33 -2 0 -10 -3 -18 -6z"/>
<path d="M9346 7069 c-30 -35 -32 -58 -11 -98 29 -56 125 -58 154 -3 51 95 -74 183 -143 101z"/>
<path d="M11276 7068 c-9 -12 -16 -29 -16 -38 0 -30 30 -60 61 -60 33 0 69 31 69 60 0 53 -84 81 -114 38z"/>
<path d="M5187 7054 c-28 -15 -47 -49 -47 -85 0 -32 53 -79 90 -79 42 0 90 47 90 89 0 64 -76 107 -133 75z"/>
<path d="M11496 6918 c-9 -12 -16 -31 -16 -41 0 -24 44 -67 70 -67 50 0 80 79 42 113 -27 25 -78 22 -96 -5z"/>
<path d="M4491 6739 c-83 -88 -151 -164 -151 -169 0 -23 21 -4 115 98 55 59 124 132 153 164 29 31 49 59 44 62 -5 3 -78 -66 -161 -155z"/>
<path d="M8979 6821 c-36 -37 -38 -79 -5 -118 53 -61 156 -21 156 61 0 79 -94 114 -151 57z"/>
<path d="M9890 6844 c0 -7 291 -328 301 -332 30 -12 -9 39 -137 179 -128 140 -164 174 -164 153z"/>
<path d="M5565 6808 c-32 -17 -45 -39 -45 -79 0 -29 7 -43 31 -63 35 -30 58 -32 98 -11 77 40 46 166 -41 165 -13 0 -32 -6 -43 -12z"/>
<path d="M8597 6634 c-28 -15 -47 -49 -47 -85 0 -32 53 -79 90 -79 42 0 90 47 90 89 0 64 -76 107 -133 75z"/>
<path d="M3666 6608 c-32 -46 -6 -98 48 -98 40 0 59 20 59 62 0 56 -76 81 -107 36z"/>
<path d="M5945 6595 c-56 -55 -15 -145 65 -145 54 0 90 34 90 85 0 51 -36 85 -90 85 -30 0 -47 -6 -65 -25z"/>
<path d="M5022 6320 c-116 -170 -133 -200 -114 -200 7 0 121 166 236 342 9 14 13 29 8 32 -5 3 -63 -75 -130 -174z"/>
<path d="M8163 6482 c-12 -9 -27 -30 -33 -45 -19 -51 30 -117 86 -117 30 0 72 30 82 60 29 81 -69 154 -135 102z"/>
<path d="M6376 6458 c-60 -54 -20 -148 62 -148 84 0 121 93 59 150 -29 28 -89 26 -121 -2z"/>
<path d="M3477 6449 c-67 -39 -15 -147 57 -119 49 18 59 68 21 105 -26 27 -49 31 -78 14z"/>
<path d="M9401 6423 c112 -186 216 -343 227 -343 6 0 12 3 11 8 -1 17 -235 366 -248 370 -10 3 -7 -8 10 -35z"/>
<path d="M7729 6395 c-35 -19 -51 -65 -37 -105 10 -30 52 -60 83 -60 31 0 73 30 83 60 15 41 -2 86 -39 105 -35 18 -56 18 -90 0z"/>
<path d="M3887 6383 c-31 -36 -21 -88 21 -104 59 -22 111 69 60 105 -29 21 -61 20 -81 -1z"/>
<path d="M6835 6388 c-32 -17 -45 -39 -45 -78 0 -79 104 -117 156 -57 33 39 31 81 -5 118 -31 31 -70 37 -106 17z"/>
<path d="M7294 6370 c-57 -23 -71 -100 -28 -144 68 -67 180 8 143 96 -11 28 -55 59 -81 57 -7 0 -23 -4 -34 -9z"/>
<path d="M10682 6350 c-12 -12 -22 -32 -22 -45 0 -24 41 -65 67 -65 19 0 63 45 63 65 0 22 -45 65 -68 65 -10 0 -28 -9 -40 -20z"/>
<path d="M3686 6188 c-22 -32 -20 -55 9 -83 29 -30 55 -32 85 -7 27 22 29 65 5 92 -25 28 -79 27 -99 -2z"/>
<path d="M5611 5988 c-58 -128 -88 -205 -82 -211 6 -6 15 3 24 24 8 19 43 97 77 174 90 201 91 203 81 209 -5 3 -50 -85 -100 -196z"/>
<path d="M10872 6164 c-28 -19 -30 -74 -4 -97 25 -23 68 -21 92 3 58 58 -20 142 -88 94z"/>
<path d="M8820 6151 c0 -4 34 -89 76 -187 42 -98 80 -190 85 -203 6 -16 13 -21 20 -14 6 6 -21 79 -78 211 -75 176 -103 227 -103 193z"/>
<path d="M10447 6132 c-37 -40 -9 -102 46 -102 33 0 70 45 61 74 -13 46 -76 62 -107 28z"/>
<path d="M6250 5768 c-29 -112 -55 -209 -57 -215 -3 -7 1 -13 9 -13 9 0 29 63 66 208 56 220 57 222 44 222 -5 0 -33 -91 -62 -202z"/>
<path d="M8210 5951 c0 -17 99 -423 105 -429 3 -3 8 -2 12 2 9 9 -96 436 -108 436 -5 0 -9 -4 -9 -9z"/>
<path d="M10620 5930 c-27 -27 -25 -56 5 -85 28 -29 55 -32 83 -7 31 27 35 55 11 85 -25 33 -70 36 -99 7z"/>
<path d="M6916 5663 c-9 -109 -19 -208 -22 -220 -3 -16 0 -23 11 -23 8 0 15 5 15 11 0 15 28 343 34 392 3 25 0 37 -8 37 -9 0 -17 -57 -30 -197z"/>
<path d="M7580 5823 c0 -90 24 -399 31 -407 19 -21 20 12 5 202 -9 109 -16 209 -16 220 0 12 -4 22 -10 22 -5 0 -10 -17 -10 -37z"/>
<path d="M4610 5780 c-28 -28 -25 -64 6 -89 15 -12 33 -21 41 -21 19 0 63 45 63 65 0 23 -45 65 -70 65 -11 0 -29 -9 -40 -20z"/>
<path d="M4877 5612 c-37 -40 -9 -102 46 -102 33 0 57 24 57 59 0 54 -68 82 -103 43z"/>
<path d="M9692 5589 c-53 -20 -51 -101 3 -115 33 -8 50 -1 71 32 16 23 16 29 3 52 -17 30 -46 42 -77 31z"/>
<path d="M4460 5562 c-45 -36 -17 -112 42 -112 33 0 68 31 68 60 0 26 -43 70 -68 70 -11 0 -30 -8 -42 -18z"/>
<path d="M9409 5450 c-25 -15 -32 -58 -14 -86 31 -48 115 -21 115 38 0 43 -61 71 -101 48z"/>
<path d="M4737 5382 c-37 -41 -6 -112 48 -112 14 0 34 9 45 20 11 11 20 31 20 45 0 55 -77 87 -113 47z"/>
<path d="M9815 5355 c-29 -28 -31 -51 -9 -83 22 -32 76 -30 103 5 24 30 20 58 -11 86 -28 24 -55 21 -83 -8z"/>
<path d="M5732 5220 c-12 -12 -22 -30 -22 -41 0 -24 43 -69 65 -69 9 0 27 11 40 25 14 13 25 31 25 40 0 22 -45 65 -68 65 -10 0 -28 -9 -40 -20z"/>
<path d="M9517 5202 c-37 -41 -6 -112 48 -112 14 0 34 9 45 20 11 11 20 31 20 45 0 55 -77 87 -113 47z"/>
<path d="M6026 5118 c-9 -12 -16 -28 -16 -36 0 -20 47 -62 70 -62 27 0 60 35 60 63 0 54 -84 79 -114 35z"/>
<path d="M8514 5104 c-35 -53 21 -113 80 -86 58 26 36 112 -29 112 -26 0 -39 -6 -51 -26z"/>
<path d="M8210 5040 c-11 -11 -20 -29 -20 -40 0 -28 35 -60 65 -60 30 0 65 32 65 60 0 28 -35 60 -65 60 -14 0 -34 -9 -45 -20z"/>
<path d="M5646 4969 c-30 -24 -34 -57 -8 -89 35 -44 112 -17 112 39 0 32 -8 44 -37 60 -30 15 -36 14 -67 -10z"/>
<path d="M6960 4970 c-11 -11 -20 -29 -20 -40 0 -25 42 -70 65 -70 20 0 65 44 65 63 0 8 -9 26 -21 41 -25 31 -61 34 -89 6z"/>
<path d="M7270 4950 c-24 -24 -25 -48 -4 -78 32 -46 114 -17 114 40 0 26 -36 58 -65 58 -14 0 -34 -9 -45 -20z"/>
<path d="M5960 4868 c-25 -28 -26 -62 0 -88 43 -43 110 -14 110 48 0 57 -70 82 -110 40z"/>
<path d="M8603 4870 c-25 -10 -38 -48 -29 -83 12 -49 90 -55 115 -8 15 28 14 46 -6 69 -22 25 -51 33 -80 22z"/>
<path d="M8260 4780 c-27 -27 -25 -56 5 -85 26 -27 46 -31 76 -14 41 21 44 86 5 111 -21 14 -66 8 -86 -12z"/>
<path d="M6937 4702 c-25 -28 -21 -67 9 -91 33 -26 58 -27 84 -1 25 25 26 72 2 93 -25 22 -75 21 -95 -1z"/>
<path d="M7270 4690 c-26 -26 -25 -51 1 -84 25 -32 68 -35 94 -6 56 62 -36 149 -95 90z"/>
<path d="M4320 15418 c-137 -94 -93 -290 67 -305 60 -6 120 21 155 69 32 45 33 143 2 185 -37 49 -82 73 -139 73 -38 0 -61 -6 -85 -22z m160 -46 c34 -25 52 -81 40 -123 -30 -103 -159 -127 -217 -40 -28 42 -29 86 -3 129 37 61 122 77 180 34z"/>
<path d="M10496 15238 c-89 -52 -105 -192 -29 -260 26 -24 87 -48 120 -48 80 0 163 84 163 165 0 48 -32 114 -67 140 -43 30 -137 32 -187 3z m155 -41 c66 -44 70 -139 8 -191 -35 -30 -93 -35 -138 -11 -30 15 -61 69 -61 105 0 57 65 120 126 120 17 0 46 -10 65 -23z"/>
<path d="M3705 15046 c-92 -55 -108 -171 -36 -250 79 -87 219 -68 270 37 27 55 27 92 -1 147 -43 85 -150 116 -233 66z m132 -31 c39 -11 73 -62 73 -110 0 -118 -151 -163 -218 -65 -45 66 -13 158 62 179 31 9 41 8 83 -4z"/>
<path d="M2221 14936 c-57 -32 -67 -102 -21 -148 27 -27 36 -30 71 -25 22 3 49 13 59 22 44 40 32 123 -21 150 -34 18 -57 18 -88 1z"/>
<path d="M12409 14881 c-37 -37 -39 -88 -6 -126 66 -76 188 -5 156 92 -21 64 -101 83 -150 34z"/>
<path d="M11093 14849 c-57 -28 -87 -78 -87 -145 0 -159 202 -227 298 -101 51 66 44 156 -17 215 -58 56 -123 67 -194 31z m163 -63 c28 -28 34 -41 34 -77 0 -120 -131 -172 -209 -83 -25 28 -31 44 -31 80 0 39 5 51 34 80 30 30 40 34 86 34 46 0 56 -4 86 -34z"/>
<path d="M11981 14814 c-87 -73 22 -205 112 -134 49 39 42 116 -14 145 -40 21 -63 19 -98 -11z"/>
<path d="M2581 14804 c-63 -52 -28 -154 53 -154 53 0 91 37 91 90 0 80 -82 116 -144 64z"/>
<path d="M3140 14608 c-74 -51 -103 -145 -65 -218 41 -80 143 -110 225 -68 62 32 92 85 87 156 -6 89 -62 143 -154 150 -49 3 -64 0 -93 -20z m122 -28 c41 -12 75 -51 78 -90 5 -54 -1 -73 -34 -106 -28 -28 -42 -34 -75 -34 -23 0 -55 7 -70 15 -31 15 -61 69 -61 107 0 35 37 87 73 103 39 17 43 17 89 5z"/>
<path d="M12315 14508 c-32 -18 -44 -40 -45 -80 0 -70 87 -112 143 -68 83 65 -7 200 -98 148z"/>
<path d="M2259 14481 c-41 -41 -40 -90 2 -125 38 -33 79 -33 116 -2 39 34 39 98 0 132 -39 33 -81 31 -118 -5z"/>
<path d="M11641 14378 c-67 -34 -86 -67 -86 -143 0 -49 5 -70 21 -92 73 -98 205 -99 277 -1 11 14 22 49 24 75 13 130 -121 221 -236 161z m148 -54 c79 -67 48 -191 -53 -210 -42 -7 -99 16 -122 51 -22 34 -22 105 -1 136 39 55 124 67 176 23z"/>
<path d="M2630 14107 c-50 -26 -90 -90 -90 -142 0 -49 41 -117 86 -142 71 -41 154 -25 211 40 45 52 53 112 22 174 -44 87 -141 117 -229 70z m130 -32 c95 -49 91 -181 -7 -222 -76 -31 -163 27 -163 111 0 48 19 80 64 107 37 23 67 24 106 4z"/>
<path d="M12140 13863 c-70 -27 -116 -106 -105 -181 5 -36 16 -56 49 -88 68 -69 155 -72 225 -8 86 77 70 213 -30 264 -36 19 -106 25 -139 13z m121 -56 c62 -42 76 -108 36 -168 -61 -91 -200 -58 -214 51 -14 105 92 175 178 117z"/>
<path d="M2206 13570 c-34 -11 -82 -54 -102 -92 -34 -65 -4 -168 61 -208 84 -52 182 -28 231 56 47 80 20 190 -56 229 -37 19 -98 26 -134 15z m128 -70 c41 -36 53 -84 33 -132 -21 -49 -51 -70 -105 -76 -41 -3 -52 0 -80 23 -54 45 -61 126 -15 178 43 47 117 50 167 7z"/>
<path d="M1064 13450 c-12 -4 -31 -21 -43 -36 -65 -83 48 -190 132 -124 55 43 40 136 -24 159 -37 13 -37 13 -65 1z"/>
<path d="M13132 13443 c-17 -7 -42 -57 -42 -86 0 -32 33 -73 66 -81 37 -10 82 11 99 45 21 40 19 63 -11 98 -20 25 -33 31 -62 30 -21 0 -43 -3 -50 -6z"/>
<path d="M1439 13411 c-20 -20 -29 -39 -29 -61 0 -42 47 -90 89 -90 41 0 80 36 88 82 5 32 1 41 -25 68 -41 40 -83 41 -123 1z"/>
<path d="M13571 13396 c-27 -15 -50 -52 -51 -79 0 -30 31 -75 61 -88 95 -39 172 79 100 152 -32 32 -70 37 -110 15z"/>
<path d="M12539 13267 c-18 -12 -44 -38 -57 -57 -20 -29 -23 -44 -20 -93 7 -99 63 -152 162 -152 53 0 68 4 98 27 45 35 73 102 65 158 -6 47 -45 104 -87 125 -44 23 -121 19 -161 -8z m123 -26 c50 -19 71 -49 76 -105 4 -50 2 -56 -30 -91 -30 -33 -41 -38 -81 -39 -56 -1 -96 26 -116 79 -36 93 60 191 151 156z"/>
<path d="M13340 13035 c-36 -38 -33 -90 8 -126 40 -36 71 -37 111 -3 65 54 28 154 -57 154 -28 0 -45 -7 -62 -25z"/>
<path d="M1233 13040 c-12 -5 -29 -23 -38 -40 -47 -91 64 -173 136 -101 41 41 40 90 -2 125 -32 27 -58 31 -96 16z"/>
<path d="M1774 12942 c-104 -76 -92 -227 22 -283 143 -68 290 81 220 224 -27 55 -69 81 -141 85 -54 3 -64 1 -101 -26z m178 -50 c38 -37 47 -95 23 -141 -23 -46 -88 -74 -138 -60 -103 28 -119 175 -25 223 47 24 104 15 140 -22z"/>
<path d="M12902 12654 c-18 -10 -45 -33 -60 -52 -23 -30 -27 -46 -27 -97 0 -52 4 -67 28 -98 46 -60 113 -84 178 -63 82 26 124 88 117 173 -5 57 -25 92 -71 127 -36 27 -122 32 -165 10z m145 -51 c25 -17 53 -71 53 -106 0 -31 -38 -88 -70 -104 -80 -41 -170 18 -170 112 0 100 101 153 187 98z"/>
<path d="M1485 12316 c-71 -31 -115 -122 -95 -196 39 -146 249 -163 311 -26 25 55 24 94 -4 146 -40 75 -136 109 -212 76z m151 -70 c29 -29 34 -41 34 -80 0 -39 -6 -52 -34 -84 -31 -33 -39 -37 -85 -37 -41 0 -55 5 -80 29 -53 51 -53 125 -1 177 24 25 37 29 80 29 46 0 56 -4 86 -34z"/>
<path d="M13175 11988 c-45 -26 -85 -93 -85 -143 0 -45 40 -116 79 -142 47 -32 125 -32 172 0 104 70 108 206 7 280 -42 31 -123 33 -173 5z m155 -47 c14 -10 31 -36 39 -58 13 -35 13 -46 0 -79 -16 -43 -68 -84 -106 -84 -39 0 -93 30 -108 61 -8 15 -15 44 -15 64 0 100 108 154 190 96z"/>
<path d="M13863 11796 c-22 -19 -28 -32 -28 -66 0 -80 82 -116 144 -64 42 35 43 84 2 125 -37 36 -79 38 -118 5z"/>
<path d="M695 11775 c-33 -32 -33 -84 -1 -121 65 -76 189 14 142 104 -17 34 -33 42 -82 42 -24 0 -43 -8 -59 -25z"/>
<path d="M324 11704 c-59 -29 -71 -98 -25 -145 36 -35 86 -39 124 -9 55 43 40 136 -24 159 -40 14 -37 14 -75 -5z"/>
<path d="M1232 11633 c-38 -18 -64 -53 -82 -106 -18 -56 1 -117 51 -161 70 -64 157 -61 225 8 57 56 67 114 33 183 -32 64 -77 93 -143 93 -28 0 -66 -8 -84 -17z m138 -38 c89 -46 73 -190 -23 -222 -77 -26 -157 34 -157 116 0 88 101 147 180 106z"/>
<path d="M13979 11351 c-36 -37 -38 -79 -5 -118 19 -22 32 -28 66 -28 82 0 119 88 61 146 -20 20 -39 29 -61 29 -22 0 -41 -9 -61 -29z"/>
<path d="M585 11348 c-62 -55 -27 -158 53 -158 85 1 122 91 63 151 -36 36 -79 38 -116 7z"/>
<path d="M13381 11303 c-104 -51 -114 -212 -18 -284 26 -20 44 -24 97 -24 80 0 123 26 152 93 63 141 -90 284 -231 215z m140 -46 c41 -28 59 -60 59 -109 0 -49 -47 -105 -97 -114 -106 -20 -185 114 -116 196 46 55 99 64 154 27z"/>
<path d="M1062 10930 c-94 -57 -105 -189 -23 -263 90 -81 223 -46 267 69 41 107 -37 214 -156 214 -37 0 -66 -6 -88 -20z m152 -39 c37 -25 55 -57 56 -99 0 -72 -52 -122 -127 -122 -117 0 -155 160 -54 223 35 22 90 21 125 -2z"/>
<path d="M13505 10595 c-96 -48 -114 -207 -30 -273 73 -57 157 -53 221 12 83 83 65 209 -37 261 -36 19 -115 19 -154 0z m135 -40 c38 -19 60 -63 60 -116 0 -33 -6 -47 -34 -75 -59 -59 -155 -44 -190 30 -22 46 -20 77 7 117 39 58 98 74 157 44z"/>
<path d="M1005 10225 c-65 -35 -95 -83 -95 -151 0 -172 237 -225 316 -72 35 67 11 167 -49 210 -40 29 -130 35 -172 13z m136 -48 c125 -84 29 -267 -111 -211 -94 38 -98 173 -7 218 45 22 78 20 118 -7z"/>
<path d="M405 10005 c-56 -55 -16 -145 64 -145 32 0 44 6 65 31 30 35 32 58 11 98 -16 33 -33 41 -81 41 -24 0 -43 -8 -59 -25z"/>
<path d="M14126 9966 c-3 -13 -2 -35 3 -48 8 -19 10 -15 10 25 1 52 -4 60 -13 23z"/>
<path d="M13555 9886 c-93 -41 -129 -182 -68 -265 74 -99 214 -89 270 18 75 144 -60 310 -202 247z m124 -50 c35 -19 51 -55 51 -117 0 -45 -4 -55 -34 -85 -28 -28 -41 -34 -78 -34 -50 0 -82 18 -103 60 -29 55 -11 141 36 174 29 20 91 21 128 2z"/>
<path d="M74 9841 c-28 -12 -64 -59 -64 -83 0 -33 28 -75 59 -88 70 -29 136 14 134 88 -2 61 -73 106 -129 83z"/>
<path d="M409 9551 c-74 -74 8 -194 99 -147 40 21 59 75 42 117 -27 64 -92 78 -141 30z"/>
<path d="M1033 9520 c-131 -30 -172 -184 -74 -281 88 -88 238 -43 271 81 32 118 -77 227 -197 200z m101 -59 c100 -66 56 -221 -63 -221 -47 0 -79 17 -101 52 -51 84 4 187 100 188 19 0 48 -9 64 -19z"/>
<path d="M14133 9480 c0 -25 2 -35 4 -22 2 12 2 32 0 45 -2 12 -4 2 -4 -23z"/>
<path d="M13514 9151 c-54 -24 -86 -71 -92 -132 -6 -60 10 -100 54 -139 106 -92 261 -28 271 113 5 70 -25 123 -87 155 -54 27 -92 28 -146 3z m136 -48 c35 -20 50 -52 50 -104 0 -95 -96 -149 -178 -99 -70 43 -77 136 -16 190 40 35 98 40 144 13z"/>
<path d="M1075 8792 c-100 -64 -118 -172 -45 -256 17 -18 43 -39 60 -46 43 -18 121 -8 160 20 36 26 70 90 70 135 0 45 -34 109 -71 135 -45 33 -132 39 -174 12z m147 -49 c12 -10 29 -31 38 -46 36 -58 -14 -159 -85 -173 -68 -12 -145 51 -145 119 0 98 123 162 192 100z"/>
<path d="M13384 8442 c-111 -70 -117 -207 -12 -285 40 -30 116 -34 165 -8 107 54 121 206 26 278 -47 36 -134 43 -179 15z m132 -38 c42 -20 64 -59 64 -113 0 -81 -88 -139 -163 -108 -42 18 -77 68 -77 112 0 42 34 93 73 110 42 19 62 18 103 -1z"/>
<path d="M599 8235 c-32 -18 -52 -63 -43 -99 15 -63 103 -88 149 -41 70 69 -20 188 -106 140z"/>
<path d="M13997 8234 c-51 -28 -60 -86 -21 -133 20 -24 34 -31 62 -31 85 1 122 91 63 151 -33 32 -62 36 -104 13z"/>
<path d="M1229 8087 c-101 -68 -107 -201 -13 -273 32 -25 47 -29 98 -29 48 0 68 5 94 23 132 95 68 302 -93 302 -38 0 -61 -6 -86 -23z m140 -31 c39 -21 61 -58 61 -106 0 -68 -26 -103 -93 -124 -30 -10 -77 6 -107 36 -96 96 19 256 139 194z"/>
<path d="M297 7959 c-11 -6 -25 -26 -33 -45 -12 -29 -12 -39 0 -68 17 -41 42 -56 91 -56 78 0 116 99 60 155 -26 27 -84 34 -118 14z"/>
<path d="M699 7781 c-20 -20 -29 -39 -29 -61 0 -43 47 -90 90 -90 43 0 90 47 90 90 0 43 -47 90 -90 90 -22 0 -41 -9 -61 -29z"/>
<path d="M13877 7799 c-11 -6 -25 -27 -33 -46 -13 -31 -13 -38 3 -71 13 -26 28 -39 50 -46 91 -25 155 83 88 149 -26 27 -75 33 -108 14z"/>
<path d="M13194 7761 c-112 -51 -135 -193 -43 -275 90 -82 220 -47 265 71 31 81 -6 165 -91 204 -50 23 -79 23 -131 0z m126 -46 c89 -46 73 -190 -23 -222 -103 -34 -193 78 -142 177 29 55 105 76 165 45z"/>
<path d="M1484 7421 c-135 -61 -118 -267 26 -310 188 -56 295 218 120 307 -54 27 -92 28 -146 3z m145 -56 c60 -51 62 -132 5 -186 -37 -34 -121 -34 -158 0 -81 76 -30 211 79 211 32 0 51 -7 74 -25z"/>
<path d="M12898 7090 c-98 -53 -112 -188 -27 -265 67 -60 154 -59 220 3 54 51 69 112 45 176 -25 65 -72 99 -144 103 -42 2 -66 -2 -94 -17z m136 -35 c95 -45 83 -191 -19 -225 -95 -31 -188 79 -142 170 16 32 73 70 104 70 14 0 39 -7 57 -15z"/>
<path d="M1815 6786 c-72 -32 -115 -121 -96 -194 40 -148 249 -166 312 -28 10 23 19 55 19 71 0 45 -34 109 -70 135 -40 29 -121 37 -165 16z m126 -47 c59 -23 79 -124 34 -177 -51 -61 -128 -66 -179 -13 -60 63 -36 170 44 198 35 12 52 10 101 -8z"/>
<path d="M1250 6563 c-62 -23 -81 -103 -35 -148 16 -17 35 -25 60 -25 78 0 116 92 62 147 -24 23 -63 35 -87 26z"/>
<path d="M13372 6555 c-85 -36 -61 -165 31 -165 70 0 114 68 82 129 -8 17 -17 31 -18 31 -1 0 -16 4 -33 9 -21 6 -40 4 -62 -4z"/>
<path d="M12551 6468 c-152 -82 -97 -308 74 -308 106 0 186 97 164 199 -23 107 -141 161 -238 109z m142 -40 c27 -14 57 -69 57 -103 0 -60 -63 -125 -120 -125 -36 0 -90 31 -105 61 -59 112 56 226 168 167z"/>
<path d="M1024 6220 c-59 -24 -72 -104 -25 -151 45 -45 118 -34 147 22 17 34 18 50 2 84 -20 45 -76 65 -124 45z"/>
<path d="M2181 6173 c-69 -34 -105 -128 -76 -201 46 -114 176 -146 266 -65 65 59 74 137 24 214 -42 65 -140 88 -214 52z m166 -67 c25 -27 33 -45 33 -73 0 -51 -32 -101 -76 -119 -110 -46 -214 95 -137 186 34 41 58 51 108 45 30 -3 48 -13 72 -39z"/>
<path d="M1465 6166 c-31 -13 -55 -51 -55 -86 0 -10 12 -32 26 -49 19 -23 34 -31 59 -31 47 0 64 8 80 41 21 40 19 74 -7 102 -29 32 -65 39 -103 23z"/>
<path d="M13116 6139 c-30 -35 -32 -58 -11 -98 29 -56 114 -59 149 -6 40 62 1 135 -73 135 -32 0 -44 -6 -65 -31z"/>
<path d="M13541 6157 c-56 -33 -67 -103 -22 -148 58 -58 147 -26 158 57 4 33 1 45 -18 68 -29 32 -83 43 -118 23z"/>
<path d="M12134 5891 c-57 -26 -87 -72 -92 -140 -3 -46 0 -62 20 -91 72 -106 206 -109 282 -7 31 42 30 140 -3 186 -27 37 -91 71 -136 71 -16 0 -48 -9 -71 -19z m153 -64 c31 -29 36 -40 36 -78 0 -73 -54 -129 -125 -129 -37 0 -88 38 -105 77 -32 77 27 163 113 163 36 0 51 -6 81 -33z"/>
<path d="M2671 5630 c-127 -30 -164 -197 -62 -283 65 -55 147 -54 212 0 60 51 74 125 38 199 -32 68 -110 102 -188 84z m118 -66 c62 -52 58 -147 -8 -191 -19 -13 -48 -23 -65 -23 -44 0 -95 34 -112 76 -47 113 92 217 185 138z"/>
<path d="M11640 5359 c-113 -65 -114 -224 -2 -287 101 -56 230 8 248 123 19 130 -132 230 -246 164z m124 -33 c106 -44 100 -190 -9 -226 -75 -25 -155 34 -155 114 0 48 19 80 64 107 37 23 56 24 100 5z"/>
<path d="M3174 5129 c-42 -12 -101 -79 -110 -124 -15 -81 44 -173 126 -195 116 -31 235 86 202 199 -16 53 -48 90 -96 112 -45 20 -74 22 -122 8z m116 -54 c81 -42 78 -176 -5 -211 -44 -18 -69 -18 -109 1 -41 20 -66 63 -66 115 0 34 6 48 34 76 28 28 42 34 75 34 23 0 55 -7 71 -15z"/>
<path d="M2263 5086 c-22 -19 -28 -32 -28 -66 0 -82 88 -119 146 -61 20 20 29 39 29 61 0 22 -9 41 -29 61 -37 36 -79 38 -118 5z"/>
<path d="M12318 5094 c-54 -29 -63 -85 -22 -133 20 -24 34 -31 61 -31 46 0 93 45 93 90 0 22 -9 41 -29 61 -32 32 -62 36 -103 13z"/>
<path d="M11100 4888 c-33 -17 -51 -35 -67 -68 -28 -54 -29 -92 -4 -146 48 -105 193 -126 270 -39 122 140 -34 338 -199 253z m156 -49 c97 -80 12 -246 -107 -210 -85 25 -118 125 -63 190 40 48 124 58 170 20z"/>
<path d="M2583 4766 c-22 -19 -28 -32 -28 -66 0 -53 38 -90 91 -90 81 0 116 102 53 154 -38 33 -79 33 -116 2z"/>
<path d="M11997 4774 c-28 -15 -47 -49 -47 -85 0 -32 53 -79 90 -79 42 0 90 47 90 89 0 64 -76 107 -133 75z"/>
<path d="M2158 4713 c-81 -50 -45 -173 50 -173 98 0 129 130 42 175 -37 19 -58 19 -92 -2z"/>
<path d="M3715 4678 c-87 -51 -110 -165 -50 -243 94 -124 295 -58 295 97 0 27 -7 62 -15 78 -41 80 -152 113 -230 68z m164 -58 c97 -98 -10 -253 -133 -195 -44 21 -66 59 -66 116 0 33 6 47 34 75 30 30 40 34 84 34 43 0 55 -5 81 -30z"/>
<path d="M12388 4662 c-63 -32 -74 -110 -21 -152 38 -30 88 -26 124 9 75 75 -8 190 -103 143z"/>
<path d="M10500 4478 c-50 -34 -72 -71 -78 -126 -13 -136 140 -226 255 -150 96 63 98 210 4 274 -49 33 -134 34 -181 2z m161 -44 c61 -55 61 -132 2 -185 -33 -28 -41 -31 -85 -27 -117 12 -154 151 -58 216 41 28 108 26 141 -4z"/>
<path d="M4345 4317 c-43 -20 -93 -80 -101 -123 -21 -112 90 -219 203 -194 143 33 179 217 58 299 -43 29 -117 37 -160 18z m151 -71 c28 -28 34 -42 34 -75 0 -124 -127 -175 -209 -85 -31 33 -33 40 -28 87 6 71 46 107 118 107 45 0 55 -4 85 -34z"/>
<path d="M9885 4156 c-66 -30 -113 -114 -100 -179 24 -115 147 -172 250 -114 106 60 113 205 12 281 -33 25 -121 32 -162 12z m110 -36 c48 -18 75 -58 75 -112 0 -41 -5 -54 -34 -86 -31 -34 -39 -37 -86 -37 -47 0 -55 3 -86 37 -26 29 -34 46 -34 76 0 51 35 103 80 119 44 15 53 15 85 3z"/>
<path d="M5000 4019 c-62 -25 -100 -85 -100 -157 0 -54 25 -100 72 -135 35 -26 114 -33 159 -14 86 36 124 151 77 232 -41 70 -134 103 -208 74z m107 -44 c39 -11 73 -62 73 -108 0 -90 -76 -147 -156 -116 -105 40 -107 190 -3 226 33 11 41 11 86 -2z"/>
<path d="M3649 3941 c-20 -20 -29 -39 -29 -61 0 -43 47 -90 90 -90 22 0 41 9 61 29 20 20 29 39 29 61 0 22 -9 41 -29 61 -20 20 -39 29 -61 29 -22 0 -41 -9 -61 -29z"/>
<path d="M10934 3956 c-59 -26 -68 -106 -17 -146 30 -24 64 -25 102 -5 32 16 41 33 41 79 0 60 -67 98 -126 72z"/>
<path d="M9215 3895 c-73 -39 -99 -86 -93 -162 5 -57 25 -92 72 -127 21 -16 42 -21 91 -21 68 0 99 15 138 67 26 35 33 114 14 159 -33 80 -149 123 -222 84z m147 -56 c15 -11 32 -35 38 -54 34 -103 -70 -196 -167 -149 -77 38 -93 138 -32 195 46 43 107 46 161 8z"/>
<path d="M5674 3791 c-62 -28 -89 -73 -89 -148 0 -98 53 -154 152 -161 49 -3 64 0 93 20 59 40 82 84 78 149 -3 37 -12 66 -28 88 -26 37 -90 71 -135 71 -16 0 -48 -9 -71 -19z m135 -46 c39 -19 65 -77 56 -122 -8 -42 -51 -89 -90 -99 -63 -16 -132 30 -149 98 -9 37 18 100 52 121 33 20 94 22 131 2z"/>
<path d="M4042 3720 c-46 -43 -36 -117 20 -146 97 -50 176 86 89 153 -25 20 -84 16 -109 -7z"/>
<path d="M10527 3720 c-50 -39 -42 -117 15 -146 74 -38 153 40 122 121 -8 20 -56 45 -87 45 -13 0 -36 -9 -50 -20z"/>
<path d="M8544 3723 c-12 -2 -40 -20 -63 -39 -137 -118 -16 -330 158 -278 53 16 83 43 106 96 21 51 19 87 -8 138 -36 69 -109 100 -193 83z m132 -77 c28 -28 34 -42 34 -75 0 -56 -22 -95 -64 -115 -92 -43 -176 11 -176 115 0 35 6 47 36 75 31 29 42 34 86 34 44 0 54 -4 84 -34z"/>
<path d="M6394 3659 c-42 -12 -101 -79 -110 -123 -22 -118 85 -223 200 -196 55 12 87 38 115 93 42 86 8 177 -84 218 -44 20 -73 22 -121 8z m116 -54 c35 -18 60 -62 60 -105 0 -92 -96 -148 -179 -106 -41 22 -61 59 -61 112 0 39 5 51 34 80 28 28 42 34 75 34 23 0 55 -7 71 -15z"/>
<path d="M7814 3611 c-144 -65 -125 -271 28 -309 164 -42 279 166 153 277 -32 28 -89 51 -125 51 -8 0 -33 -9 -56 -19z m152 -65 c28 -28 34 -42 34 -75 0 -85 -56 -138 -134 -128 -55 8 -106 61 -106 112 0 77 49 124 129 125 36 0 49 -6 77 -34z"/>
<path d="M7107 3596 c-69 -26 -107 -80 -107 -156 0 -104 104 -185 204 -159 104 26 156 139 109 236 -33 69 -130 107 -206 79z m132 -61 c84 -72 48 -200 -61 -212 -77 -8 -122 25 -135 100 -7 43 17 96 55 119 42 26 104 23 141 -7z"/>
<path d="M3649 3555 c-32 -17 -52 -63 -43 -98 8 -36 59 -77 93 -77 58 0 108 67 89 122 -21 59 -84 83 -139 53z"/>
<path d="M10859 3501 c-37 -37 -38 -79 -3 -120 21 -25 33 -31 66 -31 51 0 98 43 98 90 0 46 -47 90 -95 90 -27 0 -44 -8 -66 -29z"/>
<path d="M5298 3213 c-38 -24 -51 -66 -34 -108 25 -59 93 -74 142 -31 78 67 -21 194 -108 139z"/>
<path d="M9313 3223 c-13 -2 -32 -16 -43 -30 -70 -89 50 -194 131 -114 46 47 34 112 -26 136 -19 8 -36 14 -37 14 -2 -1 -13 -4 -25 -6z"/>
<path d="M5719 3081 c-36 -36 -38 -79 -6 -116 54 -62 157 -27 157 53 -1 85 -91 122 -151 63z"/>
<path d="M8838 3080 c-26 -27 -30 -36 -25 -67 8 -46 33 -72 78 -79 28 -5 41 -1 67 21 45 38 45 92 1 129 -42 36 -82 34 -121 -4z"/>
<path d="M7517 2929 c-9 -5 -24 -24 -33 -40 -28 -55 18 -129 81 -129 31 0 73 30 83 60 27 77 -60 150 -131 109z"/>
<path d="M7055 2907 c-21 -17 -27 -32 -27 -62 0 -78 99 -116 152 -60 77 82 -40 196 -125 122z"/>
<path d="M5391 2827 c-47 -27 -62 -78 -37 -126 29 -55 99 -66 147 -23 60 54 30 146 -52 157 -19 3 -44 -1 -58 -8z"/>
<path d="M9128 2805 c-32 -18 -52 -72 -39 -106 25 -67 113 -87 157 -36 71 83 -22 194 -118 142z"/>
<path d="M7239 2561 c-31 -31 -36 -59 -17 -94 18 -35 40 -46 86 -47 87 0 125 90 61 144 -43 36 -91 35 -130 -3z"/>
</g>
</svg>