<svg version="1.0" xmlns="http://www.w3.org/2000/svg" width="600.000000pt" height="600.000000pt" viewBox="0 0 600.000000 600.000000" preserveAspectRatio="xMidYMid meet">

<g transform="translate(0.000000,600.000000) scale(0.100000,-0.100000)" fill="#000000" stroke="none">
<path d="M2560 3543 c0 -6 26 -78 58 -160 32 -81 92 -238 132 -348 80 -217 78 -211 85 -203 5 5 -247 675 -266 708 -5 8 -9 10 -9 3z"/>
<path d="M3352 3312 c-113 -231 -206 -446 -200 -464 2 -5 25 44 52 109 27 65 98 221 158 346 61 125 109 230 106 232 -2 3 -54 -98 -116 -223z"/>
<path d="M3004 3130 c0 -151 2 -213 3 -137 2 75 2 199 0 275 -1 75 -3 13 -3 -138z"/>
<path d="M2850 3210 c0 -11 4 -20 9 -20 5 0 7 9 4 20 -3 11 -7 20 -9 20 -2 0 -4 -9 -4 -20z"/>
<path d="M3142 3200 c0 -14 2 -19 5 -12 2 6 2 18 0 25 -3 6 -5 1 -5 -13z"/>
<path d="M2864 3140 c3 -14 15 -79 27 -145 12 -66 26 -124 32 -130 6 -7 7 -3 4 10 -4 11 -16 74 -28 140 -12 66 -26 127 -31 135 -7 11 -8 8 -4 -10z"/>
<path d="M3131 3150 c-1 -3 -12 -64 -26 -135 -14 -72 -24 -137 -24 -145 1 -8 14 48 30 125 16 77 27 144 25 150 -3 5 -5 8 -5 5z"/>
<path d="M2509 2952 c185 -194 201 -209 201 -196 0 9 -324 340 -360 369 -14 10 58 -67 159 -173z"/>
<path d="M3503 2962 c-182 -172 -209 -200 -202 -206 2 -2 92 81 199 185 107 104 192 189 188 189 -4 0 -87 -76 -185 -168z"/>
<path d="M2566 3095 c4 -8 11 -15 16 -15 6 0 5 6 -2 15 -7 8 -14 15 -16 15 -2 0 -1 -7 2 -15z"/>
<path d="M3415 3089 c-4 -6 -5 -12 -2 -15 2 -3 7 2 10 11 7 17 1 20 -8 4z"/>
<path d="M2602 3052 c10 -26 162 -251 166 -247 5 5 -157 255 -165 255 -3 0 -3 -4 -1 -8z"/>
<path d="M3305 2924 c-42 -64 -74 -118 -72 -120 2 -2 35 44 74 103 79 122 86 133 79 133 -2 0 -39 -52 -81 -116z"/>
<path d="M1925 2942 c16 -16 666 -345 671 -340 2 3 -150 83 -338 178 -189 95 -338 168 -333 162z"/>
<path d="M4030 2914 c-173 -78 -630 -298 -627 -301 3 -3 202 88 595 272 50 24 92 46 92 49 0 8 4 9 -60 -20z"/>
<path d="M3620 2880 c-8 -5 -12 -12 -9 -15 4 -3 12 1 19 10 14 17 11 19 -10 5z"/>
<path d="M2444 2837 c16 -12 57 -43 90 -68 79 -59 122 -87 113 -73 -8 14 -216 164 -225 163 -4 0 6 -10 22 -22z"/>
<path d="M3495 2789 c-92 -69 -147 -113 -125 -103 22 12 220 155 220 160 0 11 -21 -2 -95 -57z"/>
<path d="M2238 2613 c7 -3 16 -2 19 1 4 3 -2 6 -13 5 -11 0 -14 -3 -6 -6z"/>
<path d="M2295 2603 c12 -12 265 -76 272 -69 5 5 -14 11 -157 46 -47 12 -94 24 -105 27 -13 3 -17 2 -10 -4z"/>
<path d="M3738 2603 c7 -3 16 -2 19 1 4 3 -2 6 -13 5 -11 0 -14 -3 -6 -6z"/>
<path d="M3557 2566 c-53 -13 -101 -26 -105 -31 -4 -4 2 -5 13 -2 11 3 64 15 118 27 53 12 97 24 97 26 0 7 -20 3 -123 -20z"/>
<path d="M4178 2463 c7 -3 16 -2 19 1 4 3 -2 6 -13 5 -11 0 -14 -3 -6 -6z"/>
<path d="M1988 2453 c105 -2 279 -2 385 0 105 1 19 2 -193 2 -212 0 -298 -1 -192 -2z"/>
<path d="M3618 2453 c101 -2 263 -2 360 0 97 1 15 2 -183 2 -198 0 -278 -1 -177 -2z"/>
</g>
</svg>